<svg xmlns="http://www.w3.org/2000/svg" xmlns:xlink="http://www.w3.org/1999/xlink" width="500" zoomAndPan="magnify" viewBox="0 0 375 374.999991" height="500" preserveAspectRatio="xMidYMid meet" version="1.0"><defs><g/><clipPath id="eb0f4cff08"><path d="M 138.8125 88.648438 L 236.3125 88.648438 L 236.3125 195.996094 L 138.8125 195.996094 Z M 138.8125 88.648438 " clip-rule="nonzero"/></clipPath><clipPath id="66dc477bc2"><path d="M 193.507812 90.164062 L 230.171875 108.910156 C 233.863281 110.796875 236.183594 114.589844 236.183594 118.734375 L 236.183594 165.78125 C 236.183594 169.921875 233.863281 173.714844 230.171875 175.601562 L 193.507812 194.351562 C 189.734375 196.28125 185.261719 196.28125 181.488281 194.351562 L 144.820312 175.601562 C 141.132812 173.714844 138.8125 169.921875 138.8125 165.78125 L 138.8125 118.734375 C 138.8125 114.589844 141.132812 110.796875 144.820312 108.910156 L 181.488281 90.164062 C 185.261719 88.234375 189.734375 88.234375 193.507812 90.164062 Z M 193.507812 90.164062 " clip-rule="nonzero"/></clipPath><clipPath id="8faf1ef66e"><path d="M 129.558594 146.078125 L 157.796875 146.078125 L 157.796875 152.84375 L 129.558594 152.84375 Z M 129.558594 146.078125 " clip-rule="nonzero"/></clipPath><clipPath id="3f48b14e84"><path d="M 132.941406 146.078125 L 154.390625 146.078125 C 155.289062 146.078125 156.148438 146.4375 156.78125 147.070312 C 157.414062 147.703125 157.773438 148.5625 157.773438 149.460938 C 157.773438 150.359375 157.414062 151.21875 156.78125 151.851562 C 156.148438 152.484375 155.289062 152.84375 154.390625 152.84375 L 132.941406 152.84375 C 132.042969 152.84375 131.183594 152.484375 130.550781 151.851562 C 129.914062 151.21875 129.558594 150.359375 129.558594 149.460938 C 129.558594 148.5625 129.914062 147.703125 130.550781 147.070312 C 131.183594 146.4375 132.042969 146.078125 132.941406 146.078125 Z M 132.941406 146.078125 " clip-rule="nonzero"/></clipPath><clipPath id="17ec864ac2"><path d="M 0.558594 0.078125 L 28.796875 0.078125 L 28.796875 6.84375 L 0.558594 6.84375 Z M 0.558594 0.078125 " clip-rule="nonzero"/></clipPath><clipPath id="05287e15df"><path d="M 3.941406 0.078125 L 25.390625 0.078125 C 26.289062 0.078125 27.148438 0.4375 27.78125 1.070312 C 28.414062 1.703125 28.773438 2.5625 28.773438 3.460938 C 28.773438 4.359375 28.414062 5.21875 27.78125 5.851562 C 27.148438 6.484375 26.289062 6.84375 25.390625 6.84375 L 3.941406 6.84375 C 3.042969 6.84375 2.183594 6.484375 1.550781 5.851562 C 0.914062 5.21875 0.558594 4.359375 0.558594 3.460938 C 0.558594 2.5625 0.914062 1.703125 1.550781 1.070312 C 2.183594 0.4375 3.042969 0.078125 3.941406 0.078125 Z M 3.941406 0.078125 " clip-rule="nonzero"/></clipPath><clipPath id="824710a614"><rect x="0" width="29" y="0" height="7"/></clipPath><clipPath id="4669d4a6ce"><path d="M 151 141 L 161 141 L 161 152 L 151 152 Z M 151 141 " clip-rule="nonzero"/></clipPath><clipPath id="49996b0714"><path d="M 150.785156 149.449219 L 155.636719 140.359375 L 161.601562 143.542969 L 156.753906 152.632812 Z M 150.785156 149.449219 " clip-rule="nonzero"/></clipPath><clipPath id="94322e2bb6"><path d="M 152.378906 146.464844 L 154.042969 143.34375 C 154.464844 142.554688 155.183594 141.964844 156.042969 141.703125 C 156.898438 141.441406 157.828125 141.53125 158.617188 141.953125 C 159.410156 142.375 160 143.09375 160.261719 143.953125 C 160.523438 144.8125 160.429688 145.738281 160.007812 146.527344 L 158.34375 149.648438 C 157.921875 150.441406 157.203125 151.03125 156.34375 151.292969 C 155.488281 151.554688 154.558594 151.464844 153.769531 151.042969 C 152.976562 150.621094 152.386719 149.898438 152.125 149.042969 C 151.863281 148.183594 151.957031 147.257812 152.378906 146.464844 Z M 152.378906 146.464844 " clip-rule="nonzero"/></clipPath><clipPath id="fa82414257"><path d="M 0.679688 0.359375 L 9.558594 0.359375 L 9.558594 10.679688 L 0.679688 10.679688 Z M 0.679688 0.359375 " clip-rule="nonzero"/></clipPath><clipPath id="31c014e6a4"><path d="M -0.214844 8.449219 L 4.636719 -0.640625 L 10.601562 2.542969 L 5.753906 11.632812 Z M -0.214844 8.449219 " clip-rule="nonzero"/></clipPath><clipPath id="eedf1f1724"><path d="M 1.378906 5.464844 L 3.042969 2.34375 C 3.464844 1.554688 4.183594 0.964844 5.042969 0.703125 C 5.898438 0.441406 6.828125 0.53125 7.617188 0.953125 C 8.410156 1.375 9 2.09375 9.261719 2.953125 C 9.523438 3.8125 9.429688 4.738281 9.007812 5.527344 L 7.34375 8.648438 C 6.921875 9.441406 6.203125 10.03125 5.34375 10.292969 C 4.488281 10.554688 3.558594 10.464844 2.769531 10.042969 C 1.976562 9.621094 1.386719 8.898438 1.125 8.042969 C 0.863281 7.183594 0.957031 6.257812 1.378906 5.464844 Z M 1.378906 5.464844 " clip-rule="nonzero"/></clipPath><clipPath id="c0e74e8154"><rect x="0" width="10" y="0" height="11"/></clipPath><clipPath id="5186a1ea96"><path d="M 154 123 L 171 123 L 171 146 L 154 146 Z M 154 123 " clip-rule="nonzero"/></clipPath><clipPath id="a5343a05b8"><path d="M 154.546875 142.375 L 164.5625 123.601562 L 170.53125 126.785156 L 160.511719 145.558594 Z M 154.546875 142.375 " clip-rule="nonzero"/></clipPath><clipPath id="e79eca8588"><path d="M 0.320312 0.359375 L 16.640625 0.359375 L 16.640625 22.679688 L 0.320312 22.679688 Z M 0.320312 0.359375 " clip-rule="nonzero"/></clipPath><clipPath id="8fdd425d4f"><path d="M 0.546875 19.375 L 10.5625 0.601562 L 16.53125 3.785156 L 6.511719 22.558594 Z M 0.546875 19.375 " clip-rule="nonzero"/></clipPath><clipPath id="8070a19a58"><path d="M 0.546875 19.375 L 10.570312 0.589844 L 16.535156 3.773438 L 6.511719 22.558594 Z M 0.546875 19.375 " clip-rule="nonzero"/></clipPath><clipPath id="50655fccf8"><path d="M 0.546875 19.375 L 10.5625 0.601562 L 16.53125 3.785156 L 6.511719 22.558594 Z M 0.546875 19.375 " clip-rule="nonzero"/></clipPath><linearGradient x1="-106.319707" gradientTransform="matrix(0.0124353, -0.0233059, 0.0233059, 0.0124353, 0.546694, 19.3746)" y1="128" x2="911.893415" gradientUnits="userSpaceOnUse" y2="128" id="2df635fe85"><stop stop-opacity="1" stop-color="rgb(61.569214%, 31.369019%, 100%)" offset="0"/><stop stop-opacity="1" stop-color="rgb(61.569214%, 31.369019%, 100%)" offset="0.0625"/><stop stop-opacity="1" stop-color="rgb(61.569214%, 31.369019%, 100%)" offset="0.09375"/><stop stop-opacity="1" stop-color="rgb(61.569214%, 31.369019%, 100%)" offset="0.101563"/><stop stop-opacity="1" stop-color="rgb(61.450195%, 31.567383%, 99.822998%)" offset="0.105469"/><stop stop-opacity="1" stop-color="rgb(61.332703%, 31.767273%, 99.647522%)" offset="0.109375"/><stop stop-opacity="1" stop-color="rgb(61.146545%, 32.080078%, 99.369812%)" offset="0.113281"/><stop stop-opacity="1" stop-color="rgb(60.961914%, 32.394409%, 99.093628%)" offset="0.117188"/><stop stop-opacity="1" stop-color="rgb(60.775757%, 32.707214%, 98.815918%)" offset="0.121094"/><stop stop-opacity="1" stop-color="rgb(60.5896%, 33.021545%, 98.539734%)" offset="0.125"/><stop stop-opacity="1" stop-color="rgb(60.403442%, 33.334351%, 98.262024%)" offset="0.128906"/><stop stop-opacity="1" stop-color="rgb(60.217285%, 33.648682%, 97.98584%)" offset="0.132812"/><stop stop-opacity="1" stop-color="rgb(60.031128%, 33.963013%, 97.709656%)" offset="0.136719"/><stop stop-opacity="1" stop-color="rgb(59.846497%, 34.277344%, 97.433472%)" offset="0.140625"/><stop stop-opacity="1" stop-color="rgb(59.660339%, 34.590149%, 97.155762%)" offset="0.144531"/><stop stop-opacity="1" stop-color="rgb(59.474182%, 34.90448%, 96.879578%)" offset="0.148438"/><stop stop-opacity="1" stop-color="rgb(59.288025%, 35.217285%, 96.601868%)" offset="0.152344"/><stop stop-opacity="1" stop-color="rgb(59.103394%, 35.531616%, 96.325684%)" offset="0.15625"/><stop stop-opacity="1" stop-color="rgb(58.917236%, 35.844421%, 96.047974%)" offset="0.160156"/><stop stop-opacity="1" stop-color="rgb(58.731079%, 36.158752%, 95.77179%)" offset="0.164062"/><stop stop-opacity="1" stop-color="rgb(58.544922%, 36.471558%, 95.49408%)" offset="0.167969"/><stop stop-opacity="1" stop-color="rgb(58.358765%, 36.785889%, 95.217896%)" offset="0.171875"/><stop stop-opacity="1" stop-color="rgb(58.172607%, 37.098694%, 94.940186%)" offset="0.175781"/><stop stop-opacity="1" stop-color="rgb(57.987976%, 37.413025%, 94.664001%)" offset="0.179688"/><stop stop-opacity="1" stop-color="rgb(57.801819%, 37.72583%, 94.386292%)" offset="0.183594"/><stop stop-opacity="1" stop-color="rgb(57.615662%, 38.040161%, 94.110107%)" offset="0.1875"/><stop stop-opacity="1" stop-color="rgb(57.429504%, 38.352966%, 93.832397%)" offset="0.191406"/><stop stop-opacity="1" stop-color="rgb(57.243347%, 38.667297%, 93.556213%)" offset="0.195312"/><stop stop-opacity="1" stop-color="rgb(57.05719%, 38.981628%, 93.278503%)" offset="0.199219"/><stop stop-opacity="1" stop-color="rgb(56.872559%, 39.295959%, 93.002319%)" offset="0.203125"/><stop stop-opacity="1" stop-color="rgb(56.686401%, 39.608765%, 92.724609%)" offset="0.207031"/><stop stop-opacity="1" stop-color="rgb(56.500244%, 39.923096%, 92.448425%)" offset="0.210938"/><stop stop-opacity="1" stop-color="rgb(56.314087%, 40.235901%, 92.170715%)" offset="0.214844"/><stop stop-opacity="1" stop-color="rgb(56.12793%, 40.550232%, 91.894531%)" offset="0.21875"/><stop stop-opacity="1" stop-color="rgb(55.941772%, 40.863037%, 91.616821%)" offset="0.222656"/><stop stop-opacity="1" stop-color="rgb(55.757141%, 41.177368%, 91.340637%)" offset="0.226562"/><stop stop-opacity="1" stop-color="rgb(55.570984%, 41.490173%, 91.062927%)" offset="0.230469"/><stop stop-opacity="1" stop-color="rgb(55.384827%, 41.804504%, 90.786743%)" offset="0.234375"/><stop stop-opacity="1" stop-color="rgb(55.198669%, 42.11731%, 90.510559%)" offset="0.238281"/><stop stop-opacity="1" stop-color="rgb(55.012512%, 42.431641%, 90.234375%)" offset="0.242187"/><stop stop-opacity="1" stop-color="rgb(54.826355%, 42.744446%, 89.956665%)" offset="0.246094"/><stop stop-opacity="1" stop-color="rgb(54.641724%, 43.058777%, 89.680481%)" offset="0.25"/><stop stop-opacity="1" stop-color="rgb(54.455566%, 43.373108%, 89.402771%)" offset="0.253906"/><stop stop-opacity="1" stop-color="rgb(54.269409%, 43.687439%, 89.126587%)" offset="0.257812"/><stop stop-opacity="1" stop-color="rgb(54.083252%, 44.000244%, 88.848877%)" offset="0.261719"/><stop stop-opacity="1" stop-color="rgb(53.897095%, 44.314575%, 88.572693%)" offset="0.265625"/><stop stop-opacity="1" stop-color="rgb(53.710938%, 44.62738%, 88.294983%)" offset="0.269531"/><stop stop-opacity="1" stop-color="rgb(53.526306%, 44.941711%, 88.018799%)" offset="0.273438"/><stop stop-opacity="1" stop-color="rgb(53.340149%, 45.254517%, 87.741089%)" offset="0.277344"/><stop stop-opacity="1" stop-color="rgb(53.153992%, 45.568848%, 87.464905%)" offset="0.28125"/><stop stop-opacity="1" stop-color="rgb(52.967834%, 45.881653%, 87.187195%)" offset="0.285156"/><stop stop-opacity="1" stop-color="rgb(52.781677%, 46.195984%, 86.911011%)" offset="0.289062"/><stop stop-opacity="1" stop-color="rgb(52.59552%, 46.508789%, 86.633301%)" offset="0.292969"/><stop stop-opacity="1" stop-color="rgb(52.410889%, 46.82312%, 86.357117%)" offset="0.296875"/><stop stop-opacity="1" stop-color="rgb(52.224731%, 47.135925%, 86.079407%)" offset="0.300781"/><stop stop-opacity="1" stop-color="rgb(52.038574%, 47.450256%, 85.803223%)" offset="0.304688"/><stop stop-opacity="1" stop-color="rgb(51.852417%, 47.764587%, 85.525513%)" offset="0.308594"/><stop stop-opacity="1" stop-color="rgb(51.66626%, 48.078918%, 85.249329%)" offset="0.3125"/><stop stop-opacity="1" stop-color="rgb(51.480103%, 48.391724%, 84.971619%)" offset="0.316406"/><stop stop-opacity="1" stop-color="rgb(51.295471%, 48.706055%, 84.695435%)" offset="0.320312"/><stop stop-opacity="1" stop-color="rgb(51.109314%, 49.01886%, 84.417725%)" offset="0.324219"/><stop stop-opacity="1" stop-color="rgb(50.923157%, 49.333191%, 84.141541%)" offset="0.328125"/><stop stop-opacity="1" stop-color="rgb(50.737%, 49.645996%, 83.863831%)" offset="0.332031"/><stop stop-opacity="1" stop-color="rgb(50.552368%, 49.960327%, 83.587646%)" offset="0.335938"/><stop stop-opacity="1" stop-color="rgb(50.366211%, 50.273132%, 83.311462%)" offset="0.339844"/><stop stop-opacity="1" stop-color="rgb(50.180054%, 50.587463%, 83.035278%)" offset="0.34375"/><stop stop-opacity="1" stop-color="rgb(49.993896%, 50.900269%, 82.757568%)" offset="0.347656"/><stop stop-opacity="1" stop-color="rgb(49.807739%, 51.2146%, 82.481384%)" offset="0.351562"/><stop stop-opacity="1" stop-color="rgb(49.621582%, 51.527405%, 82.203674%)" offset="0.355469"/><stop stop-opacity="1" stop-color="rgb(49.436951%, 51.841736%, 81.92749%)" offset="0.359375"/><stop stop-opacity="1" stop-color="rgb(49.250793%, 52.154541%, 81.64978%)" offset="0.363281"/><stop stop-opacity="1" stop-color="rgb(49.064636%, 52.468872%, 81.373596%)" offset="0.367188"/><stop stop-opacity="1" stop-color="rgb(48.878479%, 52.783203%, 81.095886%)" offset="0.371094"/><stop stop-opacity="1" stop-color="rgb(48.692322%, 53.097534%, 80.819702%)" offset="0.375"/><stop stop-opacity="1" stop-color="rgb(48.506165%, 53.410339%, 80.541992%)" offset="0.378906"/><stop stop-opacity="1" stop-color="rgb(48.321533%, 53.72467%, 80.265808%)" offset="0.382812"/><stop stop-opacity="1" stop-color="rgb(48.135376%, 54.037476%, 79.988098%)" offset="0.386719"/><stop stop-opacity="1" stop-color="rgb(47.949219%, 54.351807%, 79.711914%)" offset="0.390625"/><stop stop-opacity="1" stop-color="rgb(47.763062%, 54.664612%, 79.434204%)" offset="0.394531"/><stop stop-opacity="1" stop-color="rgb(47.576904%, 54.978943%, 79.15802%)" offset="0.398438"/><stop stop-opacity="1" stop-color="rgb(47.390747%, 55.291748%, 78.88031%)" offset="0.402344"/><stop stop-opacity="1" stop-color="rgb(47.206116%, 55.606079%, 78.604126%)" offset="0.40625"/><stop stop-opacity="1" stop-color="rgb(47.019958%, 55.918884%, 78.326416%)" offset="0.410156"/><stop stop-opacity="1" stop-color="rgb(46.833801%, 56.233215%, 78.050232%)" offset="0.414062"/><stop stop-opacity="1" stop-color="rgb(46.647644%, 56.546021%, 77.772522%)" offset="0.417969"/><stop stop-opacity="1" stop-color="rgb(46.461487%, 56.860352%, 77.496338%)" offset="0.421875"/><stop stop-opacity="1" stop-color="rgb(46.27533%, 57.174683%, 77.218628%)" offset="0.425781"/><stop stop-opacity="1" stop-color="rgb(46.090698%, 57.489014%, 76.942444%)" offset="0.429688"/><stop stop-opacity="1" stop-color="rgb(45.904541%, 57.801819%, 76.664734%)" offset="0.433594"/><stop stop-opacity="1" stop-color="rgb(45.718384%, 58.11615%, 76.38855%)" offset="0.4375"/><stop stop-opacity="1" stop-color="rgb(45.532227%, 58.428955%, 76.112366%)" offset="0.441406"/><stop stop-opacity="1" stop-color="rgb(45.346069%, 58.743286%, 75.836182%)" offset="0.445313"/><stop stop-opacity="1" stop-color="rgb(45.159912%, 59.056091%, 75.558472%)" offset="0.449219"/><stop stop-opacity="1" stop-color="rgb(44.975281%, 59.370422%, 75.282288%)" offset="0.453125"/><stop stop-opacity="1" stop-color="rgb(44.789124%, 59.683228%, 75.004578%)" offset="0.457031"/><stop stop-opacity="1" stop-color="rgb(44.602966%, 59.997559%, 74.728394%)" offset="0.460938"/><stop stop-opacity="1" stop-color="rgb(44.416809%, 60.310364%, 74.450684%)" offset="0.464844"/><stop stop-opacity="1" stop-color="rgb(44.230652%, 60.624695%, 74.1745%)" offset="0.46875"/><stop stop-opacity="1" stop-color="rgb(44.044495%, 60.9375%, 73.89679%)" offset="0.472656"/><stop stop-opacity="1" stop-color="rgb(43.859863%, 61.251831%, 73.620605%)" offset="0.476562"/><stop stop-opacity="1" stop-color="rgb(43.673706%, 61.564636%, 73.342896%)" offset="0.480469"/><stop stop-opacity="1" stop-color="rgb(43.487549%, 61.878967%, 73.066711%)" offset="0.484375"/><stop stop-opacity="1" stop-color="rgb(43.301392%, 62.193298%, 72.789001%)" offset="0.488281"/><stop stop-opacity="1" stop-color="rgb(43.115234%, 62.507629%, 72.512817%)" offset="0.492188"/><stop stop-opacity="1" stop-color="rgb(42.929077%, 62.820435%, 72.235107%)" offset="0.496094"/><stop stop-opacity="1" stop-color="rgb(42.744446%, 63.134766%, 71.958923%)" offset="0.5"/><stop stop-opacity="1" stop-color="rgb(42.558289%, 63.447571%, 71.681213%)" offset="0.503906"/><stop stop-opacity="1" stop-color="rgb(42.372131%, 63.761902%, 71.405029%)" offset="0.507812"/><stop stop-opacity="1" stop-color="rgb(42.185974%, 64.074707%, 71.127319%)" offset="0.511719"/><stop stop-opacity="1" stop-color="rgb(42.001343%, 64.389038%, 70.851135%)" offset="0.515625"/><stop stop-opacity="1" stop-color="rgb(41.815186%, 64.701843%, 70.573425%)" offset="0.519531"/><stop stop-opacity="1" stop-color="rgb(41.629028%, 65.016174%, 70.297241%)" offset="0.523438"/><stop stop-opacity="1" stop-color="rgb(41.442871%, 65.328979%, 70.019531%)" offset="0.527344"/><stop stop-opacity="1" stop-color="rgb(41.256714%, 65.643311%, 69.743347%)" offset="0.53125"/><stop stop-opacity="1" stop-color="rgb(41.070557%, 65.956116%, 69.467163%)" offset="0.535156"/><stop stop-opacity="1" stop-color="rgb(40.885925%, 66.270447%, 69.190979%)" offset="0.539062"/><stop stop-opacity="1" stop-color="rgb(40.699768%, 66.584778%, 68.913269%)" offset="0.542969"/><stop stop-opacity="1" stop-color="rgb(40.513611%, 66.899109%, 68.637085%)" offset="0.546875"/><stop stop-opacity="1" stop-color="rgb(40.327454%, 67.211914%, 68.359375%)" offset="0.550781"/><stop stop-opacity="1" stop-color="rgb(40.141296%, 67.526245%, 68.083191%)" offset="0.554688"/><stop stop-opacity="1" stop-color="rgb(39.955139%, 67.83905%, 67.805481%)" offset="0.558594"/><stop stop-opacity="1" stop-color="rgb(39.770508%, 68.153381%, 67.529297%)" offset="0.5625"/><stop stop-opacity="1" stop-color="rgb(39.584351%, 68.466187%, 67.251587%)" offset="0.566406"/><stop stop-opacity="1" stop-color="rgb(39.398193%, 68.780518%, 66.975403%)" offset="0.570312"/><stop stop-opacity="1" stop-color="rgb(39.212036%, 69.093323%, 66.697693%)" offset="0.574219"/><stop stop-opacity="1" stop-color="rgb(39.025879%, 69.407654%, 66.421509%)" offset="0.578125"/><stop stop-opacity="1" stop-color="rgb(38.839722%, 69.720459%, 66.143799%)" offset="0.582031"/><stop stop-opacity="1" stop-color="rgb(38.65509%, 70.03479%, 65.867615%)" offset="0.585938"/><stop stop-opacity="1" stop-color="rgb(38.468933%, 70.347595%, 65.589905%)" offset="0.589844"/><stop stop-opacity="1" stop-color="rgb(38.282776%, 70.661926%, 65.313721%)" offset="0.59375"/><stop stop-opacity="1" stop-color="rgb(38.096619%, 70.976257%, 65.036011%)" offset="0.597656"/><stop stop-opacity="1" stop-color="rgb(37.910461%, 71.290588%, 64.759827%)" offset="0.601562"/><stop stop-opacity="1" stop-color="rgb(37.724304%, 71.603394%, 64.482117%)" offset="0.605469"/><stop stop-opacity="1" stop-color="rgb(37.539673%, 71.917725%, 64.205933%)" offset="0.609375"/><stop stop-opacity="1" stop-color="rgb(37.353516%, 72.23053%, 63.928223%)" offset="0.613281"/><stop stop-opacity="1" stop-color="rgb(37.167358%, 72.544861%, 63.652039%)" offset="0.617188"/><stop stop-opacity="1" stop-color="rgb(36.981201%, 72.857666%, 63.374329%)" offset="0.621094"/><stop stop-opacity="1" stop-color="rgb(36.795044%, 73.171997%, 63.098145%)" offset="0.625"/><stop stop-opacity="1" stop-color="rgb(36.608887%, 73.484802%, 62.820435%)" offset="0.628906"/><stop stop-opacity="1" stop-color="rgb(36.424255%, 73.799133%, 62.54425%)" offset="0.632812"/><stop stop-opacity="1" stop-color="rgb(36.238098%, 74.111938%, 62.268066%)" offset="0.636719"/><stop stop-opacity="1" stop-color="rgb(36.051941%, 74.42627%, 61.991882%)" offset="0.640625"/><stop stop-opacity="1" stop-color="rgb(35.865784%, 74.739075%, 61.714172%)" offset="0.644531"/><stop stop-opacity="1" stop-color="rgb(35.679626%, 75.053406%, 61.437988%)" offset="0.648438"/><stop stop-opacity="1" stop-color="rgb(35.493469%, 75.366211%, 61.160278%)" offset="0.652344"/><stop stop-opacity="1" stop-color="rgb(35.308838%, 75.680542%, 60.884094%)" offset="0.65625"/><stop stop-opacity="1" stop-color="rgb(35.122681%, 75.994873%, 60.606384%)" offset="0.660156"/><stop stop-opacity="1" stop-color="rgb(34.936523%, 76.309204%, 60.3302%)" offset="0.664062"/><stop stop-opacity="1" stop-color="rgb(34.750366%, 76.622009%, 60.05249%)" offset="0.667969"/><stop stop-opacity="1" stop-color="rgb(34.564209%, 76.93634%, 59.776306%)" offset="0.671875"/><stop stop-opacity="1" stop-color="rgb(34.378052%, 77.249146%, 59.498596%)" offset="0.675781"/><stop stop-opacity="1" stop-color="rgb(34.19342%, 77.563477%, 59.222412%)" offset="0.679688"/><stop stop-opacity="1" stop-color="rgb(34.007263%, 77.876282%, 58.944702%)" offset="0.683594"/><stop stop-opacity="1" stop-color="rgb(33.821106%, 78.190613%, 58.668518%)" offset="0.6875"/><stop stop-opacity="1" stop-color="rgb(33.634949%, 78.503418%, 58.390808%)" offset="0.691406"/><stop stop-opacity="1" stop-color="rgb(33.450317%, 78.817749%, 58.114624%)" offset="0.695312"/><stop stop-opacity="1" stop-color="rgb(33.26416%, 79.130554%, 57.836914%)" offset="0.699219"/><stop stop-opacity="1" stop-color="rgb(33.078003%, 79.444885%, 57.56073%)" offset="0.703125"/><stop stop-opacity="1" stop-color="rgb(32.891846%, 79.75769%, 57.28302%)" offset="0.707031"/><stop stop-opacity="1" stop-color="rgb(32.705688%, 80.072021%, 57.006836%)" offset="0.710938"/><stop stop-opacity="1" stop-color="rgb(32.519531%, 80.386353%, 56.729126%)" offset="0.714844"/><stop stop-opacity="1" stop-color="rgb(32.3349%, 80.700684%, 56.452942%)" offset="0.71875"/><stop stop-opacity="1" stop-color="rgb(32.148743%, 81.013489%, 56.175232%)" offset="0.722656"/><stop stop-opacity="1" stop-color="rgb(31.962585%, 81.32782%, 55.899048%)" offset="0.726562"/><stop stop-opacity="1" stop-color="rgb(31.776428%, 81.640625%, 55.621338%)" offset="0.730469"/><stop stop-opacity="1" stop-color="rgb(31.590271%, 81.954956%, 55.345154%)" offset="0.734375"/><stop stop-opacity="1" stop-color="rgb(31.404114%, 82.267761%, 55.06897%)" offset="0.738281"/><stop stop-opacity="1" stop-color="rgb(31.219482%, 82.582092%, 54.792786%)" offset="0.742188"/><stop stop-opacity="1" stop-color="rgb(31.033325%, 82.894897%, 54.515076%)" offset="0.746094"/><stop stop-opacity="1" stop-color="rgb(30.847168%, 83.209229%, 54.238892%)" offset="0.75"/><stop stop-opacity="1" stop-color="rgb(30.661011%, 83.522034%, 53.961182%)" offset="0.753906"/><stop stop-opacity="1" stop-color="rgb(30.474854%, 83.836365%, 53.684998%)" offset="0.757812"/><stop stop-opacity="1" stop-color="rgb(30.288696%, 84.14917%, 53.407288%)" offset="0.761719"/><stop stop-opacity="1" stop-color="rgb(30.104065%, 84.463501%, 53.131104%)" offset="0.765625"/><stop stop-opacity="1" stop-color="rgb(29.917908%, 84.776306%, 52.853394%)" offset="0.769531"/><stop stop-opacity="1" stop-color="rgb(29.73175%, 85.090637%, 52.577209%)" offset="0.773438"/><stop stop-opacity="1" stop-color="rgb(29.545593%, 85.404968%, 52.2995%)" offset="0.777344"/><stop stop-opacity="1" stop-color="rgb(29.359436%, 85.719299%, 52.023315%)" offset="0.78125"/><stop stop-opacity="1" stop-color="rgb(29.173279%, 86.032104%, 51.745605%)" offset="0.785156"/><stop stop-opacity="1" stop-color="rgb(28.988647%, 86.346436%, 51.469421%)" offset="0.789062"/><stop stop-opacity="1" stop-color="rgb(28.80249%, 86.659241%, 51.191711%)" offset="0.792969"/><stop stop-opacity="1" stop-color="rgb(28.616333%, 86.973572%, 50.915527%)" offset="0.796875"/><stop stop-opacity="1" stop-color="rgb(28.430176%, 87.286377%, 50.637817%)" offset="0.800781"/><stop stop-opacity="1" stop-color="rgb(28.244019%, 87.600708%, 50.361633%)" offset="0.804688"/><stop stop-opacity="1" stop-color="rgb(28.057861%, 87.913513%, 50.083923%)" offset="0.808594"/><stop stop-opacity="1" stop-color="rgb(27.87323%, 88.227844%, 49.807739%)" offset="0.8125"/><stop stop-opacity="1" stop-color="rgb(27.687073%, 88.540649%, 49.530029%)" offset="0.816406"/><stop stop-opacity="1" stop-color="rgb(27.500916%, 88.85498%, 49.253845%)" offset="0.820313"/><stop stop-opacity="1" stop-color="rgb(27.314758%, 89.167786%, 48.976135%)" offset="0.824219"/><stop stop-opacity="1" stop-color="rgb(27.128601%, 89.482117%, 48.699951%)" offset="0.828125"/><stop stop-opacity="1" stop-color="rgb(26.942444%, 89.796448%, 48.422241%)" offset="0.832031"/><stop stop-opacity="1" stop-color="rgb(26.757812%, 90.110779%, 48.146057%)" offset="0.835937"/><stop stop-opacity="1" stop-color="rgb(26.571655%, 90.423584%, 47.869873%)" offset="0.839844"/><stop stop-opacity="1" stop-color="rgb(26.385498%, 90.737915%, 47.593689%)" offset="0.84375"/><stop stop-opacity="1" stop-color="rgb(26.199341%, 91.05072%, 47.315979%)" offset="0.847656"/><stop stop-opacity="1" stop-color="rgb(26.013184%, 91.365051%, 47.039795%)" offset="0.851563"/><stop stop-opacity="1" stop-color="rgb(25.827026%, 91.677856%, 46.762085%)" offset="0.855469"/><stop stop-opacity="1" stop-color="rgb(25.642395%, 91.992188%, 46.485901%)" offset="0.859375"/><stop stop-opacity="1" stop-color="rgb(25.456238%, 92.304993%, 46.208191%)" offset="0.863281"/><stop stop-opacity="1" stop-color="rgb(25.270081%, 92.619324%, 45.932007%)" offset="0.867188"/><stop stop-opacity="1" stop-color="rgb(25.083923%, 92.932129%, 45.654297%)" offset="0.871094"/><stop stop-opacity="1" stop-color="rgb(24.899292%, 93.24646%, 45.378113%)" offset="0.875"/><stop stop-opacity="1" stop-color="rgb(24.713135%, 93.559265%, 45.100403%)" offset="0.878906"/><stop stop-opacity="1" stop-color="rgb(24.526978%, 93.873596%, 44.824219%)" offset="0.882812"/><stop stop-opacity="1" stop-color="rgb(24.34082%, 94.186401%, 44.546509%)" offset="0.886719"/><stop stop-opacity="1" stop-color="rgb(24.154663%, 94.500732%, 44.270325%)" offset="0.890625"/><stop stop-opacity="1" stop-color="rgb(24.03717%, 94.699097%, 44.094849%)" offset="0.894531"/><stop stop-opacity="1" stop-color="rgb(23.919678%, 94.898987%, 43.919373%)" offset="0.898438"/><stop stop-opacity="1" stop-color="rgb(23.919678%, 94.898987%, 43.919373%)" offset="0.90625"/><stop stop-opacity="1" stop-color="rgb(23.919678%, 94.898987%, 43.919373%)" offset="0.9375"/><stop stop-opacity="1" stop-color="rgb(23.919678%, 94.898987%, 43.919373%)" offset="1"/></linearGradient><clipPath id="83057a738d"><rect x="0" width="17" y="0" height="23"/></clipPath><clipPath id="e93c68a427"><path d="M 164 121 L 189 121 L 189 174 L 164 174 Z M 164 121 " clip-rule="nonzero"/></clipPath><clipPath id="dd6cb7ab74"><path d="M 169.3125 119.996094 L 189.722656 171.859375 L 183.433594 174.335938 L 163.019531 122.472656 Z M 169.3125 119.996094 " clip-rule="nonzero"/></clipPath><clipPath id="3854284f03"><path d="M 170.550781 123.140625 L 188.480469 168.703125 C 188.808594 169.535156 188.792969 170.46875 188.433594 171.289062 C 188.078125 172.113281 187.40625 172.757812 186.574219 173.085938 C 185.738281 173.414062 184.808594 173.398438 183.984375 173.039062 C 183.164062 172.683594 182.515625 172.011719 182.1875 171.179688 L 164.257812 125.617188 C 163.929688 124.785156 163.949219 123.851562 164.304688 123.03125 C 164.664062 122.207031 165.332031 121.5625 166.167969 121.234375 C 167.003906 120.90625 167.933594 120.921875 168.753906 121.277344 C 169.578125 121.636719 170.222656 122.308594 170.550781 123.140625 Z M 170.550781 123.140625 " clip-rule="nonzero"/></clipPath><clipPath id="5b30221d83"><path d="M 0 0 L 24.878906 0 L 24.878906 52.519531 L 0 52.519531 Z M 0 0 " clip-rule="nonzero"/></clipPath><clipPath id="ad0f14671e"><path d="M 5.3125 -1.003906 L 25.722656 50.859375 L 19.433594 53.335938 L -0.980469 1.472656 Z M 5.3125 -1.003906 " clip-rule="nonzero"/></clipPath><clipPath id="44a7de16d9"><path d="M 6.550781 2.140625 L 24.480469 47.703125 C 24.808594 48.535156 24.792969 49.46875 24.433594 50.289062 C 24.078125 51.113281 23.40625 51.757812 22.574219 52.085938 C 21.738281 52.414062 20.808594 52.398438 19.984375 52.039062 C 19.164062 51.683594 18.515625 51.011719 18.1875 50.179688 L 0.257812 4.617188 C -0.0703125 3.785156 -0.0507812 2.851562 0.304688 2.03125 C 0.664062 1.207031 1.332031 0.5625 2.167969 0.234375 C 3.003906 -0.09375 3.933594 -0.078125 4.753906 0.277344 C 5.578125 0.636719 6.222656 1.308594 6.550781 2.140625 Z M 6.550781 2.140625 " clip-rule="nonzero"/></clipPath><clipPath id="db7fe8c67e"><rect x="0" width="25" y="0" height="53"/></clipPath><clipPath id="cd57495bcf"><path d="M 182 115 L 216 115 L 216 174 L 182 174 Z M 182 115 " clip-rule="nonzero"/></clipPath><clipPath id="a20136073d"><path d="M 180.9375 171.140625 L 211.191406 114.4375 L 217.160156 117.617188 L 186.90625 174.324219 Z M 180.9375 171.140625 " clip-rule="nonzero"/></clipPath><clipPath id="8291376ecc"><path d="M 182.53125 168.15625 L 209.597656 117.429688 C 210.019531 116.636719 210.738281 116.046875 211.59375 115.785156 C 212.453125 115.523438 213.378906 115.617188 214.171875 116.039062 C 214.960938 116.460938 215.554688 117.179688 215.8125 118.035156 C 216.074219 118.894531 215.984375 119.820312 215.5625 120.613281 L 188.496094 171.339844 C 188.074219 172.128906 187.355469 172.722656 186.496094 172.980469 C 185.640625 173.242188 184.710938 173.152344 183.921875 172.730469 C 183.128906 172.308594 182.539062 171.589844 182.277344 170.730469 C 182.015625 169.875 182.109375 168.945312 182.53125 168.15625 Z M 182.53125 168.15625 " clip-rule="nonzero"/></clipPath><clipPath id="48d2f539a4"><path d="M 0 0.441406 L 34 0.441406 L 34 58.28125 L 0 58.28125 Z M 0 0.441406 " clip-rule="nonzero"/></clipPath><clipPath id="e1be6deea9"><path d="M -1.0625 56.140625 L 29.191406 -0.5625 L 35.160156 2.617188 L 4.90625 59.324219 Z M -1.0625 56.140625 " clip-rule="nonzero"/></clipPath><clipPath id="3a684c3d1e"><path d="M 0.53125 53.15625 L 27.597656 2.429688 C 28.019531 1.636719 28.738281 1.046875 29.59375 0.785156 C 30.453125 0.523438 31.378906 0.617188 32.171875 1.039062 C 32.960938 1.460938 33.554688 2.179688 33.8125 3.035156 C 34.074219 3.894531 33.984375 4.820312 33.5625 5.613281 L 6.496094 56.339844 C 6.074219 57.128906 5.355469 57.722656 4.496094 57.980469 C 3.640625 58.242188 2.710938 58.152344 1.921875 57.730469 C 1.128906 57.308594 0.539062 56.589844 0.277344 55.730469 C 0.015625 54.875 0.109375 53.945312 0.53125 53.15625 Z M 0.53125 53.15625 " clip-rule="nonzero"/></clipPath><clipPath id="fcedbc1d26"><rect x="0" width="34" y="0" height="59"/></clipPath><clipPath id="76223d29d6"><path d="M 196 115 L 217 115 L 217 127 L 196 127 Z M 196 115 " clip-rule="nonzero"/></clipPath><clipPath id="7fb30bae73"><path d="M 195.988281 120.960938 L 214.753906 114.441406 L 216.972656 120.828125 L 198.210938 127.351562 Z M 195.988281 120.960938 " clip-rule="nonzero"/></clipPath><clipPath id="aa368db95c"><path d="M 199.183594 119.851562 L 211.539062 115.558594 C 212.386719 115.261719 213.316406 115.316406 214.121094 115.707031 C 214.929688 116.097656 215.546875 116.792969 215.84375 117.640625 C 216.136719 118.488281 216.082031 119.417969 215.691406 120.226562 C 215.300781 121.03125 214.605469 121.652344 213.757812 121.945312 L 201.402344 126.238281 C 200.554688 126.535156 199.625 126.480469 198.820312 126.089844 C 198.011719 125.699219 197.394531 125.003906 197.097656 124.15625 C 196.804688 123.308594 196.859375 122.378906 197.25 121.574219 C 197.640625 120.765625 198.335938 120.148438 199.183594 119.851562 Z M 199.183594 119.851562 " clip-rule="nonzero"/></clipPath><clipPath id="4f7d7442c1"><path d="M 0.800781 0.199219 L 20.238281 0.199219 L 20.238281 11.71875 L 0.800781 11.71875 Z M 0.800781 0.199219 " clip-rule="nonzero"/></clipPath><clipPath id="e0083fb0d9"><path d="M -0.0117188 5.960938 L 18.753906 -0.558594 L 20.972656 5.828125 L 2.210938 12.351562 Z M -0.0117188 5.960938 " clip-rule="nonzero"/></clipPath><clipPath id="ff74655e5c"><path d="M 3.183594 4.851562 L 15.539062 0.558594 C 16.386719 0.261719 17.316406 0.316406 18.121094 0.707031 C 18.929688 1.097656 19.546875 1.792969 19.84375 2.640625 C 20.136719 3.488281 20.082031 4.417969 19.691406 5.226562 C 19.300781 6.03125 18.605469 6.652344 17.757812 6.945312 L 5.402344 11.238281 C 4.554688 11.535156 3.625 11.480469 2.820312 11.089844 C 2.011719 10.699219 1.394531 10.003906 1.097656 9.15625 C 0.804688 8.308594 0.859375 7.378906 1.25 6.574219 C 1.640625 5.765625 2.335938 5.148438 3.183594 4.851562 Z M 3.183594 4.851562 " clip-rule="nonzero"/></clipPath><clipPath id="2aa8db1ab3"><rect x="0" width="21" y="0" height="12"/></clipPath><clipPath id="cdd4dc71a1"><path d="M 209 116 L 219 116 L 219 135 L 209 135 Z M 209 116 " clip-rule="nonzero"/></clipPath><clipPath id="66278fe47c"><path d="M 212.820312 134.746094 L 209.222656 116.851562 L 215.851562 115.519531 L 219.453125 133.414062 Z M 212.820312 134.746094 " clip-rule="nonzero"/></clipPath><clipPath id="b2b51d52b3"><path d="M 212.15625 131.433594 L 209.890625 120.171875 C 209.710938 119.292969 209.890625 118.378906 210.390625 117.632812 C 210.886719 116.886719 211.660156 116.367188 212.539062 116.191406 C 213.417969 116.015625 214.328125 116.195312 215.078125 116.691406 C 215.824219 117.1875 216.34375 117.960938 216.519531 118.839844 L 218.785156 130.097656 C 218.960938 130.976562 218.78125 131.890625 218.285156 132.636719 C 217.789062 133.382812 217.015625 133.902344 216.136719 134.082031 C 215.257812 134.257812 214.34375 134.078125 213.597656 133.582031 C 212.851562 133.085938 212.332031 132.3125 212.15625 131.433594 Z M 212.15625 131.433594 " clip-rule="nonzero"/></clipPath><clipPath id="6d80594273"><path d="M 0.519531 0 L 10 0 L 10 18.398438 L 0.519531 18.398438 Z M 0.519531 0 " clip-rule="nonzero"/></clipPath><clipPath id="7581bf62b8"><path d="M 3.820312 18.746094 L 0.222656 0.851562 L 6.851562 -0.480469 L 10.453125 17.414062 Z M 3.820312 18.746094 " clip-rule="nonzero"/></clipPath><clipPath id="10090af9bf"><path d="M 3.15625 15.433594 L 0.890625 4.171875 C 0.710938 3.292969 0.890625 2.378906 1.390625 1.632812 C 1.886719 0.886719 2.660156 0.367188 3.539062 0.191406 C 4.417969 0.015625 5.328125 0.195312 6.078125 0.691406 C 6.824219 1.1875 7.34375 1.960938 7.519531 2.839844 L 9.785156 14.097656 C 9.960938 14.976562 9.78125 15.890625 9.285156 16.636719 C 8.789062 17.382812 8.015625 17.902344 7.136719 18.082031 C 6.257812 18.257812 5.34375 18.078125 4.597656 17.582031 C 3.851562 17.085938 3.332031 16.3125 3.15625 15.433594 Z M 3.15625 15.433594 " clip-rule="nonzero"/></clipPath><clipPath id="c46614305f"><rect x="0" width="10" y="0" height="19"/></clipPath><clipPath id="e981facbd1"><path d="M 217.15625 142.257812 L 245.605469 142.257812 L 245.605469 149.023438 L 217.15625 149.023438 Z M 217.15625 142.257812 " clip-rule="nonzero"/></clipPath><clipPath id="f309934d6e"><path d="M 220.535156 142.257812 L 242.222656 142.257812 C 243.117188 142.257812 243.976562 142.617188 244.613281 143.25 C 245.246094 143.882812 245.601562 144.742188 245.601562 145.640625 C 245.601562 146.539062 245.246094 147.398438 244.613281 148.03125 C 243.976562 148.664062 243.117188 149.023438 242.222656 149.023438 L 220.535156 149.023438 C 219.640625 149.023438 218.78125 148.664062 218.144531 148.03125 C 217.511719 147.398438 217.15625 146.539062 217.15625 145.640625 C 217.15625 144.742188 217.511719 143.882812 218.144531 143.25 C 218.78125 142.617188 219.640625 142.257812 220.535156 142.257812 Z M 220.535156 142.257812 " clip-rule="nonzero"/></clipPath><clipPath id="b87252b929"><path d="M 0.15625 0.257812 L 28.605469 0.257812 L 28.605469 7.023438 L 0.15625 7.023438 Z M 0.15625 0.257812 " clip-rule="nonzero"/></clipPath><clipPath id="10c56db354"><path d="M 3.535156 0.257812 L 25.222656 0.257812 C 26.117188 0.257812 26.976562 0.617188 27.613281 1.25 C 28.246094 1.882812 28.601562 2.742188 28.601562 3.640625 C 28.601562 4.539062 28.246094 5.398438 27.613281 6.03125 C 26.976562 6.664062 26.117188 7.023438 25.222656 7.023438 L 3.535156 7.023438 C 2.640625 7.023438 1.78125 6.664062 1.144531 6.03125 C 0.511719 5.398438 0.15625 4.539062 0.15625 3.640625 C 0.15625 2.742188 0.511719 1.882812 1.144531 1.25 C 1.78125 0.617188 2.640625 0.257812 3.535156 0.257812 Z M 3.535156 0.257812 " clip-rule="nonzero"/></clipPath><clipPath id="6e70b95257"><rect x="0" width="29" y="0" height="8"/></clipPath><clipPath id="ac8d317e3f"><path d="M 207 142 L 223 142 L 223 163 L 207 163 Z M 207 142 " clip-rule="nonzero"/></clipPath><clipPath id="7c9561a19a"><path d="M 205.953125 160.707031 L 217.910156 141.050781 L 223.6875 144.566406 L 211.730469 164.222656 Z M 205.953125 160.707031 " clip-rule="nonzero"/></clipPath><clipPath id="48ebaaec03"><path d="M 207.710938 157.820312 L 216.152344 143.941406 C 216.617188 143.175781 217.367188 142.625 218.238281 142.414062 C 219.113281 142.203125 220.03125 142.34375 220.796875 142.8125 C 221.5625 143.277344 222.113281 144.027344 222.324219 144.898438 C 222.539062 145.769531 222.394531 146.691406 221.929688 147.457031 L 213.488281 161.332031 C 213.019531 162.097656 212.269531 162.648438 211.398438 162.859375 C 210.527344 163.074219 209.609375 162.929688 208.839844 162.464844 C 208.074219 162 207.527344 161.246094 207.3125 160.375 C 207.101562 159.503906 207.242188 158.585938 207.710938 157.820312 Z M 207.710938 157.820312 " clip-rule="nonzero"/></clipPath><clipPath id="b5c0026db7"><path d="M 0 0.078125 L 15.71875 0.078125 L 15.71875 21 L 0 21 Z M 0 0.078125 " clip-rule="nonzero"/></clipPath><clipPath id="a3f61c1361"><path d="M -1.046875 18.707031 L 10.910156 -0.949219 L 16.6875 2.566406 L 4.730469 22.222656 Z M -1.046875 18.707031 " clip-rule="nonzero"/></clipPath><clipPath id="183ab7040d"><path d="M 0.710938 15.820312 L 9.152344 1.941406 C 9.617188 1.175781 10.367188 0.625 11.238281 0.414062 C 12.113281 0.203125 13.03125 0.34375 13.796875 0.8125 C 14.5625 1.277344 15.113281 2.027344 15.324219 2.898438 C 15.539062 3.769531 15.394531 4.691406 14.929688 5.457031 L 6.488281 19.332031 C 6.019531 20.097656 5.269531 20.648438 4.398438 20.859375 C 3.527344 21.074219 2.609375 20.929688 1.839844 20.464844 C 1.074219 20 0.527344 19.246094 0.3125 18.375 C 0.101562 17.503906 0.242188 16.585938 0.710938 15.820312 Z M 0.710938 15.820312 " clip-rule="nonzero"/></clipPath><clipPath id="5f1379143e"><rect x="0" width="16" y="0" height="21"/></clipPath><clipPath id="3c0f96b740"><path d="M 203.246094 145.5625 L 211.578125 145.5625 L 211.578125 152.839844 L 203.246094 152.839844 Z M 203.246094 145.5625 " clip-rule="nonzero"/></clipPath><clipPath id="6c85fdb511"><path d="M 207.410156 145.5625 L 211.574219 152.828125 L 203.246094 152.828125 Z M 207.410156 145.5625 " clip-rule="nonzero"/></clipPath><clipPath id="eb1d48bae3"><path d="M 0.246094 0.5625 L 8.578125 0.5625 L 8.578125 7.839844 L 0.246094 7.839844 Z M 0.246094 0.5625 " clip-rule="nonzero"/></clipPath><clipPath id="c58e6ca430"><path d="M 4.410156 0.5625 L 8.574219 7.828125 L 0.246094 7.828125 Z M 4.410156 0.5625 " clip-rule="nonzero"/></clipPath><clipPath id="afd0e930f8"><rect x="0" width="9" y="0" height="8"/></clipPath><clipPath id="30d3952c7c"><path d="M 203 149 L 214 149 L 214 162 L 203 162 Z M 203 149 " clip-rule="nonzero"/></clipPath><clipPath id="68cbeeae57"><path d="M 209.183594 149.488281 L 213.796875 158.089844 L 207.859375 161.277344 L 203.242188 152.675781 Z M 209.183594 149.488281 " clip-rule="nonzero"/></clipPath><clipPath id="0ee4b0d801"><path d="M 0.0390625 0.28125 L 10.839844 0.28125 L 10.839844 12.28125 L 0.0390625 12.28125 Z M 0.0390625 0.28125 " clip-rule="nonzero"/></clipPath><clipPath id="d64c2eb2f4"><path d="M 6.183594 0.488281 L 10.796875 9.089844 L 4.859375 12.277344 L 0.242188 3.675781 Z M 6.183594 0.488281 " clip-rule="nonzero"/></clipPath><clipPath id="b52052de08"><rect x="0" width="11" y="0" height="13"/></clipPath></defs><g fill="#9d50ff" fill-opacity="1"><g transform="translate(41.326607, 255.877558)"><g><path d="M 26.9375 -35.421875 L 36.71875 -35.421875 L 23.59375 0 L 13.28125 0 L 0.234375 -35.421875 L 10.015625 -35.421875 L 18.484375 -10.53125 Z M 26.9375 -35.421875 "/></g></g></g><g fill="#9d50ff" fill-opacity="1"><g transform="translate(78.280378, 255.877558)"><g><path d="M 7.640625 -27.96875 C 6.753906 -27.96875 5.941406 -28.179688 5.203125 -28.609375 C 4.460938 -29.035156 3.875 -29.613281 3.4375 -30.34375 C 3.007812 -31.070312 2.796875 -31.878906 2.796875 -32.765625 C 2.796875 -33.628906 3.007812 -34.421875 3.4375 -35.140625 C 3.875 -35.859375 4.460938 -36.425781 5.203125 -36.84375 C 5.941406 -37.269531 6.753906 -37.484375 7.640625 -37.484375 C 8.492188 -37.484375 9.273438 -37.269531 9.984375 -36.84375 C 10.703125 -36.425781 11.273438 -35.859375 11.703125 -35.140625 C 12.140625 -34.421875 12.359375 -33.628906 12.359375 -32.765625 C 12.359375 -31.878906 12.140625 -31.070312 11.703125 -30.34375 C 11.273438 -29.613281 10.703125 -29.035156 9.984375 -28.609375 C 9.273438 -28.179688 8.492188 -27.96875 7.640625 -27.96875 Z M 3.15625 0 L 3.15625 -25.515625 L 12 -25.515625 L 12 0 Z M 3.15625 0 "/></g></g></g><g fill="#9d50ff" fill-opacity="1"><g transform="translate(93.432869, 255.877558)"><g><path d="M 19.0625 -26 C 20.757812 -26 22.359375 -25.703125 23.859375 -25.109375 C 25.367188 -24.523438 26.695312 -23.660156 27.84375 -22.515625 C 28.988281 -21.378906 29.890625 -19.984375 30.546875 -18.328125 C 31.203125 -16.679688 31.53125 -14.796875 31.53125 -12.671875 C 31.53125 -10.554688 31.203125 -8.671875 30.546875 -7.015625 C 29.890625 -5.359375 28.988281 -3.960938 27.84375 -2.828125 C 26.695312 -1.691406 25.367188 -0.828125 23.859375 -0.234375 C 22.359375 0.359375 20.757812 0.65625 19.0625 0.65625 C 17.457031 0.65625 15.988281 0.394531 14.65625 -0.125 C 13.332031 -0.65625 12.328125 -1.425781 11.640625 -2.4375 L 11.4375 0 L 3.15625 0 L 3.15625 -37.015625 L 11.953125 -37.015625 L 11.953125 -23.34375 C 12.691406 -24.226562 13.691406 -24.890625 14.953125 -25.328125 C 16.210938 -25.773438 17.582031 -26 19.0625 -26 Z M 16.984375 -6.546875 C 18.078125 -6.546875 19.054688 -6.785156 19.921875 -7.265625 C 20.785156 -7.753906 21.472656 -8.457031 21.984375 -9.375 C 22.492188 -10.289062 22.75 -11.390625 22.75 -12.671875 C 22.75 -13.972656 22.492188 -15.082031 21.984375 -16 C 21.472656 -16.914062 20.785156 -17.609375 19.921875 -18.078125 C 19.054688 -18.554688 18.078125 -18.796875 16.984375 -18.796875 C 15.890625 -18.796875 14.90625 -18.554688 14.03125 -18.078125 C 13.15625 -17.609375 12.460938 -16.914062 11.953125 -16 C 11.453125 -15.082031 11.203125 -13.972656 11.203125 -12.671875 C 11.203125 -11.390625 11.453125 -10.289062 11.953125 -9.375 C 12.460938 -8.457031 13.15625 -7.753906 14.03125 -7.265625 C 14.90625 -6.785156 15.890625 -6.546875 16.984375 -6.546875 Z M 16.984375 -6.546875 "/></g></g></g><g fill="#9d50ff" fill-opacity="1"><g transform="translate(126.146834, 255.877558)"><g><path d="M 28.171875 -13.03125 L 28.0625 -11.015625 L 9.859375 -11.015625 C 9.984375 -9.953125 10.296875 -9.070312 10.796875 -8.375 C 11.304688 -7.6875 11.953125 -7.171875 12.734375 -6.828125 C 13.515625 -6.484375 14.367188 -6.3125 15.296875 -6.3125 C 16.390625 -6.3125 17.320312 -6.53125 18.09375 -6.96875 C 18.863281 -7.414062 19.425781 -8.101562 19.78125 -9.03125 L 27.875 -8 C 27.363281 -6.164062 26.507812 -4.617188 25.3125 -3.359375 C 24.113281 -2.097656 22.660156 -1.140625 20.953125 -0.484375 C 19.253906 0.160156 17.382812 0.484375 15.34375 0.484375 C 12.425781 0.484375 9.898438 -0.03125 7.765625 -1.0625 C 5.640625 -2.101562 4 -3.609375 2.84375 -5.578125 C 1.695312 -7.546875 1.125 -9.925781 1.125 -12.71875 C 1.125 -14.84375 1.457031 -16.726562 2.125 -18.375 C 2.789062 -20.019531 3.742188 -21.410156 4.984375 -22.546875 C 6.222656 -23.691406 7.691406 -24.5625 9.390625 -25.15625 C 11.097656 -25.75 12.988281 -26.046875 15.0625 -26.046875 C 16.925781 -26.046875 18.644531 -25.796875 20.21875 -25.296875 C 21.800781 -24.796875 23.1875 -24.023438 24.375 -22.984375 C 25.570312 -21.941406 26.5 -20.597656 27.15625 -18.953125 C 27.8125 -17.304688 28.148438 -15.332031 28.171875 -13.03125 Z M 15.109375 -19.96875 C 13.679688 -19.96875 12.53125 -19.660156 11.65625 -19.046875 C 10.789062 -18.429688 10.222656 -17.398438 9.953125 -15.953125 L 19.65625 -15.953125 C 19.507812 -17.285156 19.015625 -18.285156 18.171875 -18.953125 C 17.328125 -19.628906 16.304688 -19.96875 15.109375 -19.96875 Z M 15.109375 -19.96875 "/></g></g></g><g fill="#ffffff" fill-opacity="1"><g transform="translate(155.619568, 255.877558)"><g><path d="M 46.53125 0 L 37.34375 0 L 35.03125 -24.96875 L 27.53125 0 L 21.46875 0 L 13.96875 -25.078125 L 11.640625 0 L 2.40625 0 L 5.515625 -35.421875 L 18.9375 -35.421875 L 24.484375 -17.328125 L 30.09375 -35.421875 L 43.46875 -35.421875 Z M 46.53125 0 "/></g></g></g><g fill="#ffffff" fill-opacity="1"><g transform="translate(204.570065, 255.877558)"><g><path d="M 28.171875 -13.03125 L 28.0625 -11.015625 L 9.859375 -11.015625 C 9.984375 -9.953125 10.296875 -9.070312 10.796875 -8.375 C 11.304688 -7.6875 11.953125 -7.171875 12.734375 -6.828125 C 13.515625 -6.484375 14.367188 -6.3125 15.296875 -6.3125 C 16.390625 -6.3125 17.320312 -6.53125 18.09375 -6.96875 C 18.863281 -7.414062 19.425781 -8.101562 19.78125 -9.03125 L 27.875 -8 C 27.363281 -6.164062 26.507812 -4.617188 25.3125 -3.359375 C 24.113281 -2.097656 22.660156 -1.140625 20.953125 -0.484375 C 19.253906 0.160156 17.382812 0.484375 15.34375 0.484375 C 12.425781 0.484375 9.898438 -0.03125 7.765625 -1.0625 C 5.640625 -2.101562 4 -3.609375 2.84375 -5.578125 C 1.695312 -7.546875 1.125 -9.925781 1.125 -12.71875 C 1.125 -14.84375 1.457031 -16.726562 2.125 -18.375 C 2.789062 -20.019531 3.742188 -21.410156 4.984375 -22.546875 C 6.222656 -23.691406 7.691406 -24.5625 9.390625 -25.15625 C 11.097656 -25.75 12.988281 -26.046875 15.0625 -26.046875 C 16.925781 -26.046875 18.644531 -25.796875 20.21875 -25.296875 C 21.800781 -24.796875 23.1875 -24.023438 24.375 -22.984375 C 25.570312 -21.941406 26.5 -20.597656 27.15625 -18.953125 C 27.8125 -17.304688 28.148438 -15.332031 28.171875 -13.03125 Z M 15.109375 -19.96875 C 13.679688 -19.96875 12.53125 -19.660156 11.65625 -19.046875 C 10.789062 -18.429688 10.222656 -17.398438 9.953125 -15.953125 L 19.65625 -15.953125 C 19.507812 -17.285156 19.015625 -18.285156 18.171875 -18.953125 C 17.328125 -19.628906 16.304688 -19.96875 15.109375 -19.96875 Z M 15.109375 -19.96875 "/></g></g></g><g fill="#ffffff" fill-opacity="1"><g transform="translate(234.031905, 255.877558)"><g><path d="M 13.46875 0 C 10.75 0 8.671875 -0.742188 7.234375 -2.234375 C 5.796875 -3.734375 5.078125 -5.847656 5.078125 -8.578125 L 5.078125 -18.84375 L 0.1875 -18.84375 L 0.1875 -25.515625 L 1.640625 -25.515625 C 2.535156 -25.515625 3.320312 -25.65625 4 -25.9375 C 4.6875 -26.226562 5.21875 -26.765625 5.59375 -27.546875 C 5.976562 -28.328125 6.171875 -29.457031 6.171875 -30.9375 L 6.171875 -33.5625 L 14.015625 -33.5625 L 14.015625 -25.515625 L 18.890625 -25.515625 L 18.890625 -18.84375 L 14.015625 -18.84375 L 14.015625 -9.5625 C 14.015625 -8.488281 14.234375 -7.71875 14.671875 -7.25 C 15.109375 -6.78125 15.757812 -6.546875 16.625 -6.546875 L 18.890625 -6.546875 L 18.890625 0 Z M 13.46875 0 "/></g></g></g><g fill="#ffffff" fill-opacity="1"><g transform="translate(254.700963, 255.877558)"><g><path d="M 11.734375 -21.96875 C 12.210938 -22.613281 12.875 -23.222656 13.71875 -23.796875 C 14.5625 -24.378906 15.523438 -24.859375 16.609375 -25.234375 C 17.691406 -25.609375 18.828125 -25.796875 20.015625 -25.796875 L 20.015625 -18.125 C 18.140625 -18.125 16.613281 -17.945312 15.4375 -17.59375 C 14.269531 -17.238281 13.410156 -16.597656 12.859375 -15.671875 C 12.316406 -14.742188 12.046875 -13.414062 12.046875 -11.6875 L 12.046875 0 L 3.15625 0 L 3.15625 -25.515625 L 11.4375 -25.515625 Z M 11.734375 -21.96875 "/></g></g></g><g fill="#ffffff" fill-opacity="1"><g transform="translate(275.080943, 255.877558)"><g><path d="M 7.640625 -27.96875 C 6.753906 -27.96875 5.941406 -28.179688 5.203125 -28.609375 C 4.460938 -29.035156 3.875 -29.613281 3.4375 -30.34375 C 3.007812 -31.070312 2.796875 -31.878906 2.796875 -32.765625 C 2.796875 -33.628906 3.007812 -34.421875 3.4375 -35.140625 C 3.875 -35.859375 4.460938 -36.425781 5.203125 -36.84375 C 5.941406 -37.269531 6.753906 -37.484375 7.640625 -37.484375 C 8.492188 -37.484375 9.273438 -37.269531 9.984375 -36.84375 C 10.703125 -36.425781 11.273438 -35.859375 11.703125 -35.140625 C 12.140625 -34.421875 12.359375 -33.628906 12.359375 -32.765625 C 12.359375 -31.878906 12.140625 -31.070312 11.703125 -30.34375 C 11.273438 -29.613281 10.703125 -29.035156 9.984375 -28.609375 C 9.273438 -28.179688 8.492188 -27.96875 7.640625 -27.96875 Z M 3.15625 0 L 3.15625 -25.515625 L 12 -25.515625 L 12 0 Z M 3.15625 0 "/></g></g></g><g fill="#ffffff" fill-opacity="1"><g transform="translate(290.233435, 255.877558)"><g><path d="M 15.296875 0.484375 C 13.179688 0.484375 11.25 0.164062 9.5 -0.46875 C 7.757812 -1.101562 6.253906 -2.003906 4.984375 -3.171875 C 3.710938 -4.347656 2.734375 -5.75 2.046875 -7.375 C 1.367188 -9 1.03125 -10.796875 1.03125 -12.765625 C 1.03125 -14.742188 1.367188 -16.539062 2.046875 -18.15625 C 2.734375 -19.78125 3.710938 -21.175781 4.984375 -22.34375 C 6.253906 -23.507812 7.757812 -24.410156 9.5 -25.046875 C 11.25 -25.679688 13.179688 -26 15.296875 -26 C 17.628906 -26 19.707031 -25.613281 21.53125 -24.84375 C 23.363281 -24.082031 24.867188 -22.960938 26.046875 -21.484375 C 27.234375 -20.015625 27.992188 -18.203125 28.328125 -16.046875 L 20.234375 -15.296875 C 19.960938 -16.679688 19.394531 -17.675781 18.53125 -18.28125 C 17.664062 -18.894531 16.554688 -19.203125 15.203125 -19.203125 C 14.097656 -19.203125 13.140625 -18.925781 12.328125 -18.375 C 11.523438 -17.832031 10.90625 -17.078125 10.46875 -16.109375 C 10.039062 -15.148438 9.828125 -14.035156 9.828125 -12.765625 C 9.828125 -11.515625 10.039062 -10.40625 10.46875 -9.4375 C 10.90625 -8.476562 11.523438 -7.722656 12.328125 -7.171875 C 13.140625 -6.628906 14.097656 -6.359375 15.203125 -6.359375 C 16.554688 -6.359375 17.664062 -6.660156 18.53125 -7.265625 C 19.394531 -7.878906 19.960938 -8.878906 20.234375 -10.265625 L 28.328125 -9.515625 C 27.992188 -7.359375 27.21875 -5.535156 26 -4.046875 C 24.789062 -2.566406 23.265625 -1.441406 21.421875 -0.671875 C 19.585938 0.0976562 17.546875 0.484375 15.296875 0.484375 Z M 15.296875 0.484375 "/></g></g></g><g fill="#ffffff" fill-opacity="1"><g transform="translate(319.550735, 255.877558)"><g><path d="M 12.671875 0.484375 C 10.710938 0.484375 8.910156 0.238281 7.265625 -0.25 C 5.628906 -0.738281 4.273438 -1.503906 3.203125 -2.546875 C 2.128906 -3.597656 1.421875 -4.953125 1.078125 -6.609375 L 8.34375 -8.625 C 8.644531 -7.789062 9.015625 -7.144531 9.453125 -6.6875 C 9.898438 -6.226562 10.40625 -5.910156 10.96875 -5.734375 C 11.53125 -5.554688 12.113281 -5.46875 12.71875 -5.46875 C 13.15625 -5.46875 13.582031 -5.507812 14 -5.59375 C 14.414062 -5.6875 14.757812 -5.859375 15.03125 -6.109375 C 15.300781 -6.359375 15.4375 -6.707031 15.4375 -7.15625 C 15.4375 -7.769531 15.1875 -8.25 14.6875 -8.59375 C 14.195312 -8.9375 13.539062 -9.222656 12.71875 -9.453125 C 11.90625 -9.691406 11 -9.929688 10 -10.171875 C 9 -10.421875 8.003906 -10.75 7.015625 -11.15625 C 6.097656 -11.519531 5.234375 -11.976562 4.421875 -12.53125 C 3.609375 -13.09375 2.945312 -13.820312 2.4375 -14.71875 C 1.9375 -15.625 1.6875 -16.757812 1.6875 -18.125 C 1.6875 -19.914062 2.144531 -21.390625 3.0625 -22.546875 C 3.976562 -23.703125 5.234375 -24.566406 6.828125 -25.140625 C 8.429688 -25.710938 10.25 -26 12.28125 -26 C 13.570312 -26 14.832031 -25.878906 16.0625 -25.640625 C 17.289062 -25.398438 18.421875 -25.015625 19.453125 -24.484375 C 20.492188 -23.953125 21.375 -23.25 22.09375 -22.375 C 22.8125 -21.507812 23.3125 -20.453125 23.59375 -19.203125 L 16.1875 -17.75 C 15.738281 -18.75 15.203125 -19.425781 14.578125 -19.78125 C 13.953125 -20.144531 13.1875 -20.328125 12.28125 -20.328125 C 11.5 -20.328125 10.859375 -20.210938 10.359375 -19.984375 C 9.859375 -19.753906 9.609375 -19.40625 9.609375 -18.9375 C 9.609375 -18.550781 9.769531 -18.238281 10.09375 -18 C 10.425781 -17.757812 10.878906 -17.550781 11.453125 -17.375 C 12.023438 -17.195312 12.675781 -17.023438 13.40625 -16.859375 C 14.132812 -16.703125 14.894531 -16.507812 15.6875 -16.28125 C 16.664062 -16.007812 17.632812 -15.671875 18.59375 -15.265625 C 19.5625 -14.859375 20.441406 -14.332031 21.234375 -13.6875 C 22.035156 -13.039062 22.675781 -12.234375 23.15625 -11.265625 C 23.632812 -10.304688 23.875 -9.140625 23.875 -7.765625 C 23.875 -6.234375 23.566406 -4.941406 22.953125 -3.890625 C 22.347656 -2.835938 21.519531 -1.988281 20.46875 -1.34375 C 19.425781 -0.707031 18.234375 -0.242188 16.890625 0.046875 C 15.554688 0.335938 14.148438 0.484375 12.671875 0.484375 Z M 12.671875 0.484375 "/></g></g></g><g clip-path="url(#eb0f4cff08)"><g clip-path="url(#66dc477bc2)"><path stroke-linecap="butt" transform="matrix(0.75, 0, 0, 0.75, 138.811841, 87.090808)" fill="none" stroke-linejoin="miter" d="M 72.927967 4.097673 L 121.813387 29.092466 C 126.735262 31.608092 129.829012 36.665384 129.829012 42.191426 L 129.829012 104.920596 C 129.829012 110.44143 126.735262 115.498722 121.813387 118.014347 L 72.927967 143.014349 C 67.896716 145.587266 61.933174 145.587266 56.901924 143.014349 L 8.011296 118.014347 C 3.094629 115.498722 0.000878687 110.44143 0.000878687 104.920596 L 0.000878687 42.191426 C 0.000878687 36.665384 3.094629 31.608092 8.011296 29.092466 L 56.901924 4.097673 C 61.933174 1.524756 67.896716 1.524756 72.927967 4.097673 Z M 72.927967 4.097673 " stroke="#9d50ff" stroke-width="22" stroke-opacity="1" stroke-miterlimit="4"/></g></g><g clip-path="url(#8faf1ef66e)"><g clip-path="url(#3f48b14e84)"><g transform="matrix(1, 0, 0, 1, 129, 146)"><g clip-path="url(#824710a614)"><g clip-path="url(#17ec864ac2)"><g clip-path="url(#05287e15df)"><path fill="#9d50ff" d="M 0.558594 0.078125 L 28.773438 0.078125 L 28.773438 6.84375 L 0.558594 6.84375 Z M 0.558594 0.078125 " fill-opacity="1" fill-rule="nonzero"/></g></g></g></g></g></g><g clip-path="url(#4669d4a6ce)"><g clip-path="url(#49996b0714)"><g clip-path="url(#94322e2bb6)"><g transform="matrix(1, 0, 0, 1, 151, 141)"><g clip-path="url(#c0e74e8154)"><g clip-path="url(#fa82414257)"><g clip-path="url(#31c014e6a4)"><g clip-path="url(#eedf1f1724)"><path fill="#9d50ff" d="M -0.214844 8.449219 L 4.636719 -0.640625 L 10.601562 2.542969 L 5.753906 11.632812 Z M -0.214844 8.449219 " fill-opacity="1" fill-rule="nonzero"/></g></g></g></g></g></g></g></g><g clip-path="url(#5186a1ea96)"><g clip-path="url(#a5343a05b8)"><g transform="matrix(1, 0, 0, 1, 154, 123)"><g clip-path="url(#83057a738d)"><g clip-path="url(#e79eca8588)"><g clip-path="url(#8fdd425d4f)"><g clip-path="url(#8070a19a58)"><g clip-path="url(#50655fccf8)"><path fill="url(#2df635fe85)" d="M -8.574219 17.691406 L 12.988281 29.195312 L 25.648438 5.464844 L 4.089844 -6.039062 Z M -8.574219 17.691406 " fill-rule="nonzero"/></g></g></g></g></g></g></g></g><g clip-path="url(#e93c68a427)"><g clip-path="url(#dd6cb7ab74)"><g clip-path="url(#3854284f03)"><g transform="matrix(1, 0, 0, 1, 164, 121)"><g clip-path="url(#db7fe8c67e)"><g clip-path="url(#5b30221d83)"><g clip-path="url(#ad0f14671e)"><g clip-path="url(#44a7de16d9)"><path fill="#3df270" d="M 5.3125 -1.003906 L 25.714844 50.835938 L 19.421875 53.3125 L -0.980469 1.472656 Z M 5.3125 -1.003906 " fill-opacity="1" fill-rule="nonzero"/></g></g></g></g></g></g></g></g><g clip-path="url(#cd57495bcf)"><g clip-path="url(#a20136073d)"><g clip-path="url(#8291376ecc)"><g transform="matrix(1, 0, 0, 1, 182, 115)"><g clip-path="url(#fcedbc1d26)"><g clip-path="url(#48d2f539a4)"><g clip-path="url(#e1be6deea9)"><g clip-path="url(#3a684c3d1e)"><path fill="#3df270" d="M -1.0625 56.140625 L 29.191406 -0.5625 L 35.160156 2.617188 L 4.90625 59.324219 Z M -1.0625 56.140625 " fill-opacity="1" fill-rule="nonzero"/></g></g></g></g></g></g></g></g><g clip-path="url(#76223d29d6)"><g clip-path="url(#7fb30bae73)"><g clip-path="url(#aa368db95c)"><g transform="matrix(1, 0, 0, 1, 196, 115)"><g clip-path="url(#2aa8db1ab3)"><g clip-path="url(#4f7d7442c1)"><g clip-path="url(#e0083fb0d9)"><g clip-path="url(#ff74655e5c)"><path fill="#3df270" d="M -0.0117188 5.960938 L 18.726562 -0.550781 L 20.949219 5.835938 L 2.210938 12.351562 Z M -0.0117188 5.960938 " fill-opacity="1" fill-rule="nonzero"/></g></g></g></g></g></g></g></g><g clip-path="url(#cdd4dc71a1)"><g clip-path="url(#66278fe47c)"><g clip-path="url(#b2b51d52b3)"><g transform="matrix(1, 0, 0, 1, 209, 116)"><g clip-path="url(#c46614305f)"><g clip-path="url(#6d80594273)"><g clip-path="url(#7581bf62b8)"><g clip-path="url(#10090af9bf)"><path fill="#3df270" d="M 3.820312 18.746094 L 0.222656 0.851562 L 6.851562 -0.480469 L 10.453125 17.414062 Z M 3.820312 18.746094 " fill-opacity="1" fill-rule="nonzero"/></g></g></g></g></g></g></g></g><g clip-path="url(#e981facbd1)"><g clip-path="url(#f309934d6e)"><g transform="matrix(1, 0, 0, 1, 217, 142)"><g clip-path="url(#6e70b95257)"><g clip-path="url(#b87252b929)"><g clip-path="url(#10c56db354)"><path fill="#9d50ff" d="M 0.15625 0.257812 L 28.605469 0.257812 L 28.605469 7.023438 L 0.15625 7.023438 Z M 0.15625 0.257812 " fill-opacity="1" fill-rule="nonzero"/></g></g></g></g></g></g><g clip-path="url(#ac8d317e3f)"><g clip-path="url(#7c9561a19a)"><g clip-path="url(#48ebaaec03)"><g transform="matrix(1, 0, 0, 1, 207, 142)"><g clip-path="url(#5f1379143e)"><g clip-path="url(#b5c0026db7)"><g clip-path="url(#a3f61c1361)"><g clip-path="url(#183ab7040d)"><path fill="#9d50ff" d="M -1.046875 18.707031 L 10.910156 -0.949219 L 16.6875 2.566406 L 4.730469 22.222656 Z M -1.046875 18.707031 " fill-opacity="1" fill-rule="nonzero"/></g></g></g></g></g></g></g></g><g clip-path="url(#3c0f96b740)"><g clip-path="url(#6c85fdb511)"><g transform="matrix(1, 0, 0, 1, 203, 145)"><g clip-path="url(#afd0e930f8)"><g clip-path="url(#eb1d48bae3)"><g clip-path="url(#c58e6ca430)"><path fill="#9d50ff" d="M 0.246094 0.5625 L 8.578125 0.5625 L 8.578125 7.839844 L 0.246094 7.839844 Z M 0.246094 0.5625 " fill-opacity="1" fill-rule="nonzero"/></g></g></g></g></g></g><g clip-path="url(#30d3952c7c)"><g clip-path="url(#68cbeeae57)"><g transform="matrix(1, 0, 0, 1, 203, 149)"><g clip-path="url(#b52052de08)"><g clip-path="url(#0ee4b0d801)"><g clip-path="url(#d64c2eb2f4)"><path fill="#9d50ff" d="M 6.183594 0.488281 L 10.800781 9.097656 L 4.863281 12.285156 L 0.242188 3.675781 Z M 6.183594 0.488281 " fill-opacity="1" fill-rule="nonzero"/></g></g></g></g></g></g></svg>